<svg width="480" height="92" viewBox="0 0 480 92" fill="none" xmlns="http://www.w3.org/2000/svg">
<g filter="url(#filter0_d_6_34)">
<mask id="mask0_6_34" style="mask-type:luminance" maskUnits="userSpaceOnUse" x="4" y="0" width="85" height="84">
<path d="M89 0H4V84H89V0Z" fill="white"/>
</mask>
<g mask="url(#mask0_6_34)">
<path d="M4 25.5145V39.6358L25.8101 39.9566L30.7815 50.0663L43.1297 23.9098L55.9592 57.2874L66.5435 27.4402L72.3167 39.9566H88.8384V25.5145H62.5343V0H29.8193V25.5145H4Z" fill="#247A27"/>
<path d="M4 58.8964V44.0918H23.3916L30.9867 57.4482L43.1065 34.7585L56.1958 69.9999L67.1844 37.816L69.4468 44.0918H88.8384V58.8964H63.3061V83.9999H29.6939V58.8964H4Z" fill="#247A27"/>
</g>
<path d="M104.034 59V24.0909H127.557V30.1761H111.415V38.4943H126.347V44.5795H111.415V52.9148H127.625V59H104.034ZM133.288 59V32.8182H140.209V37.4375H140.516C141.061 35.9034 141.97 34.6932 143.243 33.8068C144.516 32.9205 146.038 32.4773 147.811 32.4773C149.607 32.4773 151.135 32.9261 152.396 33.8239C153.658 34.7102 154.499 35.9148 154.919 37.4375H155.192C155.726 35.9375 156.692 34.7386 158.089 33.8409C159.499 32.9318 161.163 32.4773 163.084 32.4773C165.527 32.4773 167.51 33.2557 169.033 34.8125C170.567 36.358 171.334 38.5511 171.334 41.392V59H164.089V42.8239C164.089 41.3693 163.703 40.2784 162.93 39.5511C162.158 38.8239 161.192 38.4602 160.033 38.4602C158.714 38.4602 157.686 38.8807 156.947 39.7216C156.209 40.5511 155.839 41.6477 155.839 43.0114V59H148.8V42.6705C148.8 41.3864 148.43 40.3636 147.692 39.6023C146.964 38.8409 146.004 38.4602 144.811 38.4602C144.004 38.4602 143.277 38.6648 142.629 39.0739C141.993 39.4716 141.487 40.0341 141.112 40.7614C140.737 41.4773 140.55 42.3182 140.55 43.2841V59H133.288ZM189.001 59.5114C186.308 59.5114 183.99 58.9659 182.047 57.875C180.115 56.7727 178.626 55.2159 177.581 53.2045C176.536 51.1818 176.013 48.7898 176.013 46.0284C176.013 43.3352 176.536 40.9716 177.581 38.9375C178.626 36.9034 180.098 35.3182 181.996 34.1818C183.905 33.0455 186.143 32.4773 188.712 32.4773C190.439 32.4773 192.047 32.7557 193.536 33.3125C195.036 33.858 196.342 34.6818 197.456 35.7841C198.581 36.8864 199.456 38.2727 200.081 39.9432C200.706 41.6023 201.018 43.5455 201.018 45.7727V47.767H178.911V43.267H194.183C194.183 42.2216 193.956 41.2955 193.501 40.4886C193.047 39.6818 192.416 39.0511 191.609 38.5966C190.814 38.1307 189.888 37.8977 188.831 37.8977C187.729 37.8977 186.751 38.1534 185.899 38.6648C185.058 39.1648 184.399 39.8409 183.922 40.6932C183.445 41.5341 183.2 42.4716 183.189 43.5057V47.7841C183.189 49.0795 183.428 50.1989 183.905 51.142C184.393 52.0852 185.081 52.8125 185.967 53.3239C186.854 53.8352 187.905 54.0909 189.121 54.0909C189.928 54.0909 190.666 53.9773 191.337 53.75C192.007 53.5227 192.581 53.1818 193.058 52.7273C193.536 52.2727 193.899 51.7159 194.149 51.0568L200.865 51.5C200.524 53.1136 199.825 54.5227 198.768 55.7273C197.723 56.9205 196.371 57.8523 194.712 58.5227C193.064 59.1818 191.161 59.5114 189.001 59.5114ZM205.757 59V32.8182H212.797V37.3864H213.07C213.547 35.7614 214.348 34.5341 215.473 33.7045C216.598 32.8636 217.893 32.4432 219.359 32.4432C219.723 32.4432 220.115 32.4659 220.536 32.5114C220.956 32.5568 221.325 32.6193 221.643 32.6989V39.142C221.303 39.0398 220.831 38.9489 220.229 38.8693C219.626 38.7898 219.075 38.75 218.575 38.75C217.507 38.75 216.553 38.983 215.712 39.4489C214.882 39.9034 214.223 40.5398 213.734 41.358C213.257 42.1761 213.018 43.1193 213.018 44.1875V59H205.757ZM235.974 69.3636C233.622 69.3636 231.605 69.0398 229.923 68.392C228.253 67.7557 226.923 66.8864 225.935 65.7841C224.946 64.6818 224.304 63.4432 224.009 62.0682L230.724 61.1648C230.929 61.6875 231.253 62.1761 231.696 62.6307C232.139 63.0852 232.724 63.4489 233.452 63.7216C234.19 64.0057 235.088 64.1477 236.145 64.1477C237.724 64.1477 239.026 63.7614 240.048 62.9886C241.082 62.2273 241.599 60.9489 241.599 59.1534V54.3636H241.293C240.974 55.0909 240.497 55.7784 239.861 56.4261C239.224 57.0739 238.406 57.6023 237.406 58.0114C236.406 58.4205 235.213 58.625 233.827 58.625C231.861 58.625 230.071 58.1705 228.457 57.2614C226.855 56.3409 225.577 54.9375 224.622 53.0511C223.679 51.1534 223.207 48.7557 223.207 45.858C223.207 42.892 223.69 40.4148 224.656 38.4261C225.622 36.4375 226.906 34.9489 228.509 33.9602C230.122 32.9716 231.889 32.4773 233.81 32.4773C235.276 32.4773 236.503 32.7273 237.491 33.2273C238.48 33.7159 239.276 34.3295 239.878 35.0682C240.491 35.7955 240.963 36.5114 241.293 37.2159H241.565V32.8182H248.776V59.2557C248.776 61.483 248.23 63.3466 247.139 64.8466C246.048 66.3466 244.537 67.4716 242.605 68.2216C240.685 68.983 238.474 69.3636 235.974 69.3636ZM236.128 53.1705C237.298 53.1705 238.287 52.8807 239.094 52.3011C239.912 51.7102 240.537 50.8693 240.969 49.7784C241.412 48.6761 241.634 47.358 241.634 45.8239C241.634 44.2898 241.418 42.9602 240.986 41.8352C240.554 40.6989 239.929 39.8182 239.111 39.1932C238.293 38.5682 237.298 38.2557 236.128 38.2557C234.935 38.2557 233.929 38.5795 233.111 39.2273C232.293 39.8636 231.673 40.75 231.253 41.8864C230.832 43.0227 230.622 44.3352 230.622 45.8239C230.622 47.3352 230.832 48.642 231.253 49.7443C231.685 50.8352 232.304 51.6818 233.111 52.2841C233.929 52.875 234.935 53.1705 236.128 53.1705ZM266.486 59.5114C263.793 59.5114 261.474 58.9659 259.531 57.875C257.599 56.7727 256.111 55.2159 255.065 53.2045C254.02 51.1818 253.497 48.7898 253.497 46.0284C253.497 43.3352 254.02 40.9716 255.065 38.9375C256.111 36.9034 257.582 35.3182 259.48 34.1818C261.389 33.0455 263.628 32.4773 266.196 32.4773C267.923 32.4773 269.531 32.7557 271.02 33.3125C272.52 33.858 273.827 34.6818 274.94 35.7841C276.065 36.8864 276.94 38.2727 277.565 39.9432C278.19 41.6023 278.503 43.5455 278.503 45.7727V47.767H256.395V43.267H271.668C271.668 42.2216 271.44 41.2955 270.986 40.4886C270.531 39.6818 269.901 39.0511 269.094 38.5966C268.298 38.1307 267.372 37.8977 266.315 37.8977C265.213 37.8977 264.236 38.1534 263.384 38.6648C262.543 39.1648 261.884 39.8409 261.406 40.6932C260.929 41.5341 260.685 42.4716 260.673 43.5057V47.7841C260.673 49.0795 260.912 50.1989 261.389 51.142C261.878 52.0852 262.565 52.8125 263.452 53.3239C264.338 53.8352 265.389 54.0909 266.605 54.0909C267.412 54.0909 268.151 53.9773 268.821 53.75C269.491 53.5227 270.065 53.1818 270.543 52.7273C271.02 52.2727 271.384 51.7159 271.634 51.0568L278.349 51.5C278.009 53.1136 277.31 54.5227 276.253 55.7273C275.207 56.9205 273.855 57.8523 272.196 58.5227C270.548 59.1818 268.645 59.5114 266.486 59.5114ZM290.503 43.8636V59H283.241V32.8182H290.162V37.4375H290.469C291.048 35.9148 292.02 34.7102 293.384 33.8239C294.747 32.9261 296.401 32.4773 298.344 32.4773C300.162 32.4773 301.747 32.875 303.099 33.6705C304.452 34.4659 305.503 35.6023 306.253 37.0795C307.003 38.5455 307.378 40.2955 307.378 42.3295V59H300.116V43.625C300.128 42.0227 299.719 40.7727 298.889 39.875C298.06 38.9659 296.918 38.5114 295.463 38.5114C294.486 38.5114 293.622 38.7216 292.872 39.142C292.134 39.5625 291.554 40.1761 291.134 40.983C290.724 41.7784 290.514 42.7386 290.503 43.8636ZM324.93 59.5114C322.249 59.5114 319.942 58.9432 318.01 57.8068C316.089 56.6591 314.612 55.0682 313.578 53.0341C312.555 51 312.044 48.6591 312.044 46.0114C312.044 43.3295 312.561 40.9773 313.595 38.9545C314.641 36.9205 316.124 35.3352 318.044 34.1989C319.964 33.0511 322.249 32.4773 324.896 32.4773C327.18 32.4773 329.18 32.892 330.896 33.7216C332.612 34.5511 333.97 35.7159 334.97 37.2159C335.97 38.7159 336.521 40.4773 336.624 42.5H329.771C329.578 41.1932 329.067 40.142 328.237 39.3466C327.419 38.5398 326.345 38.1364 325.016 38.1364C323.891 38.1364 322.908 38.4432 322.067 39.0568C321.237 39.6591 320.589 40.5398 320.124 41.6989C319.658 42.858 319.425 44.2614 319.425 45.9091C319.425 47.5795 319.652 49 320.107 50.1705C320.572 51.3409 321.226 52.233 322.067 52.8466C322.908 53.4602 323.891 53.767 325.016 53.767C325.845 53.767 326.589 53.5966 327.249 53.2557C327.919 52.9148 328.47 52.4205 328.902 51.7727C329.345 51.1136 329.635 50.3239 329.771 49.4034H336.624C336.51 51.4034 335.964 53.1648 334.987 54.6875C334.021 56.1989 332.686 57.3807 330.982 58.233C329.277 59.0852 327.26 59.5114 324.93 59.5114ZM345.756 68.8182C344.835 68.8182 343.972 68.7443 343.165 68.5966C342.369 68.4602 341.71 68.2841 341.188 68.0682L342.824 62.6477C343.676 62.9091 344.443 63.0511 345.125 63.0739C345.818 63.0966 346.415 62.9375 346.915 62.5966C347.426 62.2557 347.841 61.6761 348.159 60.858L348.585 59.75L339.193 32.8182H346.83L352.25 52.0455H352.523L357.994 32.8182H365.682L355.506 61.8295C355.017 63.2386 354.352 64.4659 353.511 65.5114C352.682 66.5682 351.631 67.3807 350.358 67.9489C349.085 68.5284 347.551 68.8182 345.756 68.8182ZM380.643 59V24.0909H388.024V52.9148H402.99V59H380.643ZM407.741 59V32.8182H415.003V59H407.741ZM411.389 29.4432C410.31 29.4432 409.384 29.0852 408.611 28.3693C407.849 27.642 407.469 26.7727 407.469 25.7614C407.469 24.7614 407.849 23.9034 408.611 23.1875C409.384 22.4602 410.31 22.0966 411.389 22.0966C412.469 22.0966 413.389 22.4602 414.151 23.1875C414.923 23.9034 415.31 24.7614 415.31 25.7614C415.31 26.7727 414.923 27.642 414.151 28.3693C413.389 29.0852 412.469 29.4432 411.389 29.4432ZM428.081 43.8636V59H420.82V32.8182H427.74V37.4375H428.047C428.626 35.9148 429.598 34.7102 430.962 33.8239C432.325 32.9261 433.979 32.4773 435.922 32.4773C437.74 32.4773 439.325 32.875 440.678 33.6705C442.03 34.4659 443.081 35.6023 443.831 37.0795C444.581 38.5455 444.956 40.2955 444.956 42.3295V59H437.695V43.625C437.706 42.0227 437.297 40.7727 436.467 39.875C435.638 38.9659 434.496 38.5114 433.041 38.5114C432.064 38.5114 431.2 38.7216 430.45 39.142C429.712 39.5625 429.132 40.1761 428.712 40.983C428.303 41.7784 428.092 42.7386 428.081 43.8636ZM457.259 51.4659L457.276 42.7557H458.332L466.719 32.8182H475.054L463.787 45.9773H462.065L457.259 51.4659ZM450.679 59V24.0909H457.94V59H450.679ZM467.043 59L459.338 47.5966L464.179 42.4659L475.548 59H467.043Z" fill="black"/>
</g>
<defs>
<filter id="filter0_d_6_34" x="0" y="0" width="479.548" height="92" filterUnits="userSpaceOnUse" color-interpolation-filters="sRGB">
<feFlood flood-opacity="0" result="BackgroundImageFix"/>
<feColorMatrix in="SourceAlpha" type="matrix" values="0 0 0 0 0 0 0 0 0 0 0 0 0 0 0 0 0 0 127 0" result="hardAlpha"/>
<feOffset dy="4"/>
<feGaussianBlur stdDeviation="2"/>
<feComposite in2="hardAlpha" operator="out"/>
<feColorMatrix type="matrix" values="0 0 0 0 0 0 0 0 0 0 0 0 0 0 0 0 0 0 0.25 0"/>
<feBlend mode="normal" in2="BackgroundImageFix" result="effect1_dropShadow_6_34"/>
<feBlend mode="normal" in="SourceGraphic" in2="effect1_dropShadow_6_34" result="shape"/>
</filter>
</defs>
</svg>
